<?xml version="1.0" encoding="UTF-8" standalone="no"?>
<!-- Created with Inkscape (http://www.inkscape.org/) -->

<svg
   width="210mm"
   height="297mm"
   viewBox="0 0 210 297"
   version="1.1"
   id="svg5"
   xmlns="http://www.w3.org/2000/svg"
   xmlns:svg="http://www.w3.org/2000/svg">
  <defs
     id="defs2" />
  <g
     id="layer1">
    <g
       id="g4238"
       transform="matrix(0.00254,0,0,-0.00254,-55.40502,172.16704)">
      <path
         d="m 23637.2,60598.4 6.7,33.9 19.3,28.8 28.7,19.2 33.9,6.7 h 177.2 l 33.9,-6.7 28.7,-19.2 19.2,-28.8 6.7,-33.9 v -196.8 l -6.7,-33.9 -19.2,-28.8 -28.7,-19.2 -33.9,-6.7 h -177.2 l -33.9,6.7 -28.7,19.2 -19.3,28.8 -6.7,33.9 z"
         style="fill:#000000;fill-opacity:1;fill-rule:nonzero;stroke:#000000;stroke-width:0.0003937;stroke-linecap:round;stroke-linejoin:round;stroke-miterlimit:10;stroke-dasharray:none;stroke-opacity:1"
         id="path4240" />
      <path
         d="m 24247.4,60598.4 6.8,33.9 19.2,28.8 28.7,19.2 33.9,6.7 h 177.2 l 33.9,-6.7 28.7,-19.2 19.2,-28.8 6.8,-33.9 v -196.8 l -6.8,-33.9 -19.2,-28.8 -28.7,-19.2 -33.9,-6.7 H 24336 l -33.9,6.7 -28.7,19.2 -19.2,28.8 -6.8,33.9 z"
         style="fill:#000000;fill-opacity:1;fill-rule:nonzero;stroke:#000000;stroke-width:0.0003937;stroke-linecap:round;stroke-linejoin:round;stroke-miterlimit:10;stroke-dasharray:none;stroke-opacity:1"
         id="path4242" />
      <path
         d="m 23260,58362.6 h -1181.1 v 629.9 H 23260 Z"
         style="fill:#000000;fill-opacity:1;fill-rule:nonzero;stroke:#000000;stroke-width:0.0003937;stroke-linecap:round;stroke-linejoin:round;stroke-miterlimit:10;stroke-dasharray:none;stroke-opacity:1"
         id="path4244" />
      <path
         d="m 23260,59307.5 h -1181.1 v 629.9 H 23260 Z"
         style="fill:#000000;fill-opacity:1;fill-rule:nonzero;stroke:#000000;stroke-width:0.0003937;stroke-linecap:round;stroke-linejoin:round;stroke-miterlimit:10;stroke-dasharray:none;stroke-opacity:1"
         id="path4246" />
      <path
         d="m 28632.3,62141.7 -6,-30.1 -17.1,-25.5 -25.5,-17.1 -30.2,-6 h -157.4 l -30.2,6 -25.5,17.1 -17.1,25.5 -6,30.1 v 216.6 l 6,30.1 17.1,25.5 25.5,17.1 30.2,6 h 157.4 l 30.2,-6 25.5,-17.1 17.1,-25.5 6,-30.1 z"
         style="fill:#000000;fill-opacity:1;fill-rule:nonzero;stroke:#000000;stroke-width:0.0003937;stroke-linecap:round;stroke-linejoin:round;stroke-miterlimit:10;stroke-dasharray:none;stroke-opacity:1"
         id="path4248" />
      <path
         d="m 27982.7,62141.7 -6,-30.1 -17.1,-25.5 -25.5,-17.1 -30.2,-6 h -157.4 l -30.2,6 -25.5,17.1 -17.1,25.5 -6,30.1 v 216.6 l 6,30.1 17.1,25.5 25.5,17.1 30.2,6 h 157.4 l 30.2,-6 25.5,-17.1 17.1,-25.5 6,-30.1 z"
         style="fill:#000000;fill-opacity:1;fill-rule:nonzero;stroke:#000000;stroke-width:0.0003937;stroke-linecap:round;stroke-linejoin:round;stroke-miterlimit:10;stroke-dasharray:none;stroke-opacity:1"
         id="path4250" />
      <path
         d="m 24485.2,59244.1 h 452.8 v -236.2 h -452.8 z"
         style="fill:#000000;fill-opacity:1;fill-rule:nonzero;stroke:#000000;stroke-width:0.0003937;stroke-linecap:round;stroke-linejoin:round;stroke-miterlimit:10;stroke-dasharray:none;stroke-opacity:1"
         id="path4252" />
      <path
         d="m 24485.2,59618.1 h 452.8 v -236.2 h -452.8 z"
         style="fill:#000000;fill-opacity:1;fill-rule:nonzero;stroke:#000000;stroke-width:0.0003937;stroke-linecap:round;stroke-linejoin:round;stroke-miterlimit:10;stroke-dasharray:none;stroke-opacity:1"
         id="path4254" />
      <path
         d="m 24485.2,59992.1 h 452.8 v -236.2 h -452.8 z"
         style="fill:#000000;fill-opacity:1;fill-rule:nonzero;stroke:#000000;stroke-width:0.0003937;stroke-linecap:round;stroke-linejoin:round;stroke-miterlimit:10;stroke-dasharray:none;stroke-opacity:1"
         id="path4256" />
      <path
         d="m 23501,59992.1 h 452.7 v -236.2 H 23501 Z"
         style="fill:#000000;fill-opacity:1;fill-rule:nonzero;stroke:#000000;stroke-width:0.0003937;stroke-linecap:round;stroke-linejoin:round;stroke-miterlimit:10;stroke-dasharray:none;stroke-opacity:1"
         id="path4258" />
      <path
         d="m 23501,59244.1 h 452.7 v -236.2 H 23501 Z"
         style="fill:#000000;fill-opacity:1;fill-rule:nonzero;stroke:#000000;stroke-width:0.0003937;stroke-linecap:round;stroke-linejoin:round;stroke-miterlimit:10;stroke-dasharray:none;stroke-opacity:1"
         id="path4260" />
      <path
         d="m 22098.4,55982.3 33.9,-6.8 28.8,-19.2 19.2,-28.7 6.7,-33.9 v -177.2 l -6.7,-33.9 -19.2,-28.7 -28.8,-19.2 -33.9,-6.7 h -196.8 l -33.9,6.7 -28.8,19.2 -19.2,28.7 -6.7,33.9 v 177.2 l 6.7,33.9 19.2,28.7 28.8,19.2 33.9,6.8 z"
         style="fill:#000000;fill-opacity:1;fill-rule:nonzero;stroke:#000000;stroke-width:0.0003937;stroke-linecap:round;stroke-linejoin:round;stroke-miterlimit:10;stroke-dasharray:none;stroke-opacity:1"
         id="path4262" />
      <path
         d="m 22098.4,55372 33.9,-6.7 28.8,-19.2 19.2,-28.7 6.7,-33.9 v -177.2 l -6.7,-33.9 -19.2,-28.7 -28.8,-19.2 -33.9,-6.8 h -196.8 l -33.9,6.8 -28.8,19.2 -19.2,28.7 -6.7,33.9 v 177.2 l 6.7,33.9 19.2,28.7 28.8,19.2 33.9,6.7 z"
         style="fill:#000000;fill-opacity:1;fill-rule:nonzero;stroke:#000000;stroke-width:0.0003937;stroke-linecap:round;stroke-linejoin:round;stroke-miterlimit:10;stroke-dasharray:none;stroke-opacity:1"
         id="path4264" />
      <path
         d="m 28189,63098.4 -3.8,-18.8 -10.6,-16 -16,-10.6 -18.8,-3.8 h -492.2 l -18.8,3.8 -16,10.6 -10.6,16 -3.8,18.8 v 98.5 l 3.8,18.8 10.6,15.9 16,10.7 18.8,3.8 h 492.2 l 18.8,-3.8 16,-10.7 10.6,-15.9 3.8,-18.8 z"
         style="fill:#000000;fill-opacity:1;fill-rule:nonzero;stroke:#000000;stroke-width:0.0003937;stroke-linecap:round;stroke-linejoin:round;stroke-miterlimit:10;stroke-dasharray:none;stroke-opacity:1"
         id="path4266" />
      <path
         d="m 28189,63413.4 -3.8,-18.8 -10.6,-16 -16,-10.7 -18.8,-3.7 h -492.2 l -18.8,3.7 -16,10.7 -10.6,16 -3.8,18.8 v 98.4 l 3.8,18.8 10.6,16 16,10.7 18.8,3.7 h 492.2 l 18.8,-3.7 16,-10.7 10.6,-16 3.8,-18.8 z"
         style="fill:#000000;fill-opacity:1;fill-rule:nonzero;stroke:#000000;stroke-width:0.0003937;stroke-linecap:round;stroke-linejoin:round;stroke-miterlimit:10;stroke-dasharray:none;stroke-opacity:1"
         id="path4268" />
      <path
         d="m 28189,63728.3 -3.8,-18.8 -10.6,-16 -16,-10.6 -18.8,-3.8 h -492.2 l -18.8,3.8 -16,10.6 -10.6,16 -3.8,18.8 v 98.5 l 3.8,18.8 10.6,16 16,10.6 18.8,3.8 h 492.2 l 18.8,-3.8 16,-10.6 10.6,-16 3.8,-18.8 z"
         style="fill:#000000;fill-opacity:1;fill-rule:nonzero;stroke:#000000;stroke-width:0.0003937;stroke-linecap:round;stroke-linejoin:round;stroke-miterlimit:10;stroke-dasharray:none;stroke-opacity:1"
         id="path4270" />
      <path
         d="m 28189,64043.3 -3.8,-18.8 -10.6,-16 -16,-10.7 -18.8,-3.7 h -492.2 l -18.8,3.7 -16,10.7 -10.6,16 -3.8,18.8 v 98.4 l 3.8,18.9 10.6,15.9 16,10.7 18.8,3.7 h 492.2 l 18.8,-3.7 16,-10.7 10.6,-15.9 3.8,-18.9 z"
         style="fill:#000000;fill-opacity:1;fill-rule:nonzero;stroke:#000000;stroke-width:0.0003937;stroke-linecap:round;stroke-linejoin:round;stroke-miterlimit:10;stroke-dasharray:none;stroke-opacity:1"
         id="path4272" />
      <path
         d="m 28189,64358.3 -3.8,-18.9 -10.6,-15.9 -16,-10.7 -18.8,-3.7 h -492.2 l -18.8,3.7 -16,10.7 -10.6,15.9 -3.8,18.9 v 98.4 l 3.8,18.8 10.6,16 16,10.7 18.8,3.7 h 492.2 l 18.8,-3.7 16,-10.7 10.6,-16 3.8,-18.8 z"
         style="fill:#000000;fill-opacity:1;fill-rule:nonzero;stroke:#000000;stroke-width:0.0003937;stroke-linecap:round;stroke-linejoin:round;stroke-miterlimit:10;stroke-dasharray:none;stroke-opacity:1"
         id="path4274" />
      <path
         d="m 28189,64673.2 -3.8,-18.8 -10.6,-16 -16,-10.6 -18.8,-3.8 h -492.2 l -18.8,3.8 -16,10.6 -10.6,16 -3.8,18.8 v 98.5 l 3.8,18.8 10.6,16 16,10.6 18.8,3.8 h 492.2 l 18.8,-3.8 16,-10.6 10.6,-16 3.8,-18.8 z"
         style="fill:#000000;fill-opacity:1;fill-rule:nonzero;stroke:#000000;stroke-width:0.0003937;stroke-linecap:round;stroke-linejoin:round;stroke-miterlimit:10;stroke-dasharray:none;stroke-opacity:1"
         id="path4276" />
      <path
         d="m 28189,64988.2 -3.8,-18.8 -10.6,-16 -16,-10.7 -18.8,-3.7 h -492.2 l -18.8,3.7 -16,10.7 -10.6,16 -3.8,18.8 v 98.4 l 3.8,18.8 10.6,16 16,10.7 18.8,3.7 h 492.2 l 18.8,-3.7 16,-10.7 10.6,-16 3.8,-18.8 z"
         style="fill:#000000;fill-opacity:1;fill-rule:nonzero;stroke:#000000;stroke-width:0.0003937;stroke-linecap:round;stroke-linejoin:round;stroke-miterlimit:10;stroke-dasharray:none;stroke-opacity:1"
         id="path4278" />
      <path
         d="m 28189,65303.1 -3.8,-18.8 -10.6,-15.9 -16,-10.7 -18.8,-3.8 h -492.2 l -18.8,3.8 -16,10.7 -10.6,15.9 -3.8,18.8 v 98.5 l 3.8,18.8 10.6,16 16,10.6 18.8,3.8 h 492.2 l 18.8,-3.8 16,-10.6 10.6,-16 3.8,-18.8 z"
         style="fill:#000000;fill-opacity:1;fill-rule:nonzero;stroke:#000000;stroke-width:0.0003937;stroke-linecap:round;stroke-linejoin:round;stroke-miterlimit:10;stroke-dasharray:none;stroke-opacity:1"
         id="path4280" />
      <path
         d="m 27450.8,65647.6 -3.8,-18.8 -10.6,-16 -16,-10.6 -18.8,-3.8 h -98.5 l -18.8,3.8 -15.9,10.6 -10.7,16 -3.8,18.8 v 492.2 l 3.8,18.8 10.7,16 15.9,10.6 18.8,3.8 h 98.5 l 18.8,-3.8 16,-10.6 10.6,-16 3.8,-18.8 z"
         style="fill:#000000;fill-opacity:1;fill-rule:nonzero;stroke:#000000;stroke-width:0.0003937;stroke-linecap:round;stroke-linejoin:round;stroke-miterlimit:10;stroke-dasharray:none;stroke-opacity:1"
         id="path4282" />
      <path
         d="m 27135.8,65647.6 -3.7,-18.8 -10.7,-16 -16,-10.6 -18.8,-3.8 h -98.4 l -18.8,3.8 -16,10.6 -10.7,16 -3.7,18.8 v 492.2 l 3.7,18.8 10.7,16 16,10.6 18.8,3.8 h 98.4 l 18.8,-3.8 16,-10.6 10.7,-16 3.7,-18.8 z"
         style="fill:#000000;fill-opacity:1;fill-rule:nonzero;stroke:#000000;stroke-width:0.0003937;stroke-linecap:round;stroke-linejoin:round;stroke-miterlimit:10;stroke-dasharray:none;stroke-opacity:1"
         id="path4284" />
      <path
         d="m 26820.9,65647.6 -3.8,-18.8 -10.6,-16 -16,-10.6 -18.8,-3.8 h -98.5 l -18.8,3.8 -16,10.6 -10.6,16 -3.8,18.8 v 492.2 l 3.8,18.8 10.6,16 16,10.6 18.8,3.8 h 98.5 l 18.8,-3.8 16,-10.6 10.6,-16 3.8,-18.8 z"
         style="fill:#000000;fill-opacity:1;fill-rule:nonzero;stroke:#000000;stroke-width:0.0003937;stroke-linecap:round;stroke-linejoin:round;stroke-miterlimit:10;stroke-dasharray:none;stroke-opacity:1"
         id="path4286" />
      <path
         d="m 26505.9,65647.6 -3.7,-18.8 -10.7,-16 -16,-10.6 -18.8,-3.8 h -98.4 l -18.9,3.8 -15.9,10.6 -10.7,16 -3.7,18.8 v 492.2 l 3.7,18.8 10.7,16 15.9,10.6 18.9,3.8 h 98.4 l 18.8,-3.8 16,-10.6 10.7,-16 3.7,-18.8 z"
         style="fill:#000000;fill-opacity:1;fill-rule:nonzero;stroke:#000000;stroke-width:0.0003937;stroke-linecap:round;stroke-linejoin:round;stroke-miterlimit:10;stroke-dasharray:none;stroke-opacity:1"
         id="path4288" />
      <path
         d="m 26190.9,65647.6 -3.7,-18.8 -10.7,-16 -15.9,-10.6 -18.9,-3.8 h -98.4 l -18.8,3.8 -16,10.6 -10.7,16 -3.7,18.8 v 492.2 l 3.7,18.8 10.7,16 16,10.6 18.8,3.8 h 98.4 l 18.9,-3.8 15.9,-10.6 10.7,-16 3.7,-18.8 z"
         style="fill:#000000;fill-opacity:1;fill-rule:nonzero;stroke:#000000;stroke-width:0.0003937;stroke-linecap:round;stroke-linejoin:round;stroke-miterlimit:10;stroke-dasharray:none;stroke-opacity:1"
         id="path4290" />
      <path
         d="m 25876,65647.6 -3.8,-18.8 -10.6,-16 -16,-10.6 -18.8,-3.8 h -98.5 l -18.8,3.8 -16,10.6 -10.6,16 -3.8,18.8 v 492.2 l 3.8,18.8 10.6,16 16,10.6 18.8,3.8 h 98.5 l 18.8,-3.8 16,-10.6 10.6,-16 3.8,-18.8 z"
         style="fill:#000000;fill-opacity:1;fill-rule:nonzero;stroke:#000000;stroke-width:0.0003937;stroke-linecap:round;stroke-linejoin:round;stroke-miterlimit:10;stroke-dasharray:none;stroke-opacity:1"
         id="path4292" />
      <path
         d="m 25561,65647.6 -3.7,-18.8 -10.7,-16 -16,-10.6 -18.8,-3.8 h -98.4 l -18.8,3.8 -16,10.6 -10.7,16 -3.7,18.8 v 492.2 l 3.7,18.8 10.7,16 16,10.6 18.8,3.8 h 98.4 l 18.8,-3.8 16,-10.6 10.7,-16 3.7,-18.8 z"
         style="fill:#000000;fill-opacity:1;fill-rule:nonzero;stroke:#000000;stroke-width:0.0003937;stroke-linecap:round;stroke-linejoin:round;stroke-miterlimit:10;stroke-dasharray:none;stroke-opacity:1"
         id="path4294" />
      <path
         d="m 25246.1,65647.6 -3.8,-18.8 -10.7,-16 -15.9,-10.6 -18.8,-3.8 h -98.5 l -18.8,3.8 -16,10.6 -10.6,16 -3.8,18.8 v 492.2 l 3.8,18.8 10.6,16 16,10.6 18.8,3.8 h 98.5 l 18.8,-3.8 15.9,-10.6 10.7,-16 3.8,-18.8 z"
         style="fill:#000000;fill-opacity:1;fill-rule:nonzero;stroke:#000000;stroke-width:0.0003937;stroke-linecap:round;stroke-linejoin:round;stroke-miterlimit:10;stroke-dasharray:none;stroke-opacity:1"
         id="path4296" />
      <path
         d="m 24901.6,65303.1 -3.8,-18.8 -10.6,-15.9 -16,-10.7 -18.8,-3.8 h -492.2 l -18.8,3.8 -16,10.7 -10.6,15.9 -3.8,18.8 v 98.5 l 3.8,18.8 10.6,16 16,10.6 18.8,3.8 h 492.2 l 18.8,-3.8 16,-10.6 10.6,-16 3.8,-18.8 z"
         style="fill:#000000;fill-opacity:1;fill-rule:nonzero;stroke:#000000;stroke-width:0.0003937;stroke-linecap:round;stroke-linejoin:round;stroke-miterlimit:10;stroke-dasharray:none;stroke-opacity:1"
         id="path4298" />
      <path
         d="m 24901.6,64988.2 -3.8,-18.8 -10.6,-16 -16,-10.7 -18.8,-3.7 h -492.2 l -18.8,3.7 -16,10.7 -10.6,16 -3.8,18.8 v 98.4 l 3.8,18.8 10.6,16 16,10.7 18.8,3.7 h 492.2 l 18.8,-3.7 16,-10.7 10.6,-16 3.8,-18.8 z"
         style="fill:#000000;fill-opacity:1;fill-rule:nonzero;stroke:#000000;stroke-width:0.0003937;stroke-linecap:round;stroke-linejoin:round;stroke-miterlimit:10;stroke-dasharray:none;stroke-opacity:1"
         id="path4300" />
      <path
         d="m 24901.6,64673.2 -3.8,-18.8 -10.6,-16 -16,-10.6 -18.8,-3.8 h -492.2 l -18.8,3.8 -16,10.6 -10.6,16 -3.8,18.8 v 98.5 l 3.8,18.8 10.6,16 16,10.6 18.8,3.8 h 492.2 l 18.8,-3.8 16,-10.6 10.6,-16 3.8,-18.8 z"
         style="fill:#000000;fill-opacity:1;fill-rule:nonzero;stroke:#000000;stroke-width:0.0003937;stroke-linecap:round;stroke-linejoin:round;stroke-miterlimit:10;stroke-dasharray:none;stroke-opacity:1"
         id="path4302" />
      <path
         d="m 24901.6,64358.3 -3.8,-18.9 -10.6,-15.9 -16,-10.7 -18.8,-3.7 h -492.2 l -18.8,3.7 -16,10.7 -10.6,15.9 -3.8,18.9 v 98.4 l 3.8,18.8 10.6,16 16,10.7 18.8,3.7 h 492.2 l 18.8,-3.7 16,-10.7 10.6,-16 3.8,-18.8 z"
         style="fill:#000000;fill-opacity:1;fill-rule:nonzero;stroke:#000000;stroke-width:0.0003937;stroke-linecap:round;stroke-linejoin:round;stroke-miterlimit:10;stroke-dasharray:none;stroke-opacity:1"
         id="path4304" />
      <path
         d="m 24901.6,64043.3 -3.8,-18.8 -10.6,-16 -16,-10.7 -18.8,-3.7 h -492.2 l -18.8,3.7 -16,10.7 -10.6,16 -3.8,18.8 v 98.4 l 3.8,18.9 10.6,15.9 16,10.7 18.8,3.7 h 492.2 l 18.8,-3.7 16,-10.7 10.6,-15.9 3.8,-18.9 z"
         style="fill:#000000;fill-opacity:1;fill-rule:nonzero;stroke:#000000;stroke-width:0.0003937;stroke-linecap:round;stroke-linejoin:round;stroke-miterlimit:10;stroke-dasharray:none;stroke-opacity:1"
         id="path4306" />
      <path
         d="m 24901.6,63728.3 -3.8,-18.8 -10.6,-16 -16,-10.6 -18.8,-3.8 h -492.2 l -18.8,3.8 -16,10.6 -10.6,16 -3.8,18.8 v 98.5 l 3.8,18.8 10.6,16 16,10.6 18.8,3.8 h 492.2 l 18.8,-3.8 16,-10.6 10.6,-16 3.8,-18.8 z"
         style="fill:#000000;fill-opacity:1;fill-rule:nonzero;stroke:#000000;stroke-width:0.0003937;stroke-linecap:round;stroke-linejoin:round;stroke-miterlimit:10;stroke-dasharray:none;stroke-opacity:1"
         id="path4308" />
      <path
         d="m 24901.6,63413.4 -3.8,-18.8 -10.6,-16 -16,-10.7 -18.8,-3.7 h -492.2 l -18.8,3.7 -16,10.7 -10.6,16 -3.8,18.8 v 98.4 l 3.8,18.8 10.6,16 16,10.7 18.8,3.7 h 492.2 l 18.8,-3.7 16,-10.7 10.6,-16 3.8,-18.8 z"
         style="fill:#000000;fill-opacity:1;fill-rule:nonzero;stroke:#000000;stroke-width:0.0003937;stroke-linecap:round;stroke-linejoin:round;stroke-miterlimit:10;stroke-dasharray:none;stroke-opacity:1"
         id="path4310" />
      <path
         d="m 24901.6,63098.4 -3.8,-18.8 -10.6,-16 -16,-10.6 -18.8,-3.8 h -492.2 l -18.8,3.8 -16,10.6 -10.6,16 -3.8,18.8 v 98.5 l 3.8,18.8 10.6,15.9 16,10.7 18.8,3.8 h 492.2 l 18.8,-3.8 16,-10.7 10.6,-15.9 3.8,-18.8 z"
         style="fill:#000000;fill-opacity:1;fill-rule:nonzero;stroke:#000000;stroke-width:0.0003937;stroke-linecap:round;stroke-linejoin:round;stroke-miterlimit:10;stroke-dasharray:none;stroke-opacity:1"
         id="path4312" />
      <path
         d="m 25246.1,62360.2 -3.8,-18.8 -10.7,-16 -15.9,-10.6 -18.8,-3.8 h -98.5 l -18.8,3.8 -16,10.6 -10.6,16 -3.8,18.8 v 492.2 l 3.8,18.8 10.6,16 16,10.6 18.8,3.8 h 98.5 l 18.8,-3.8 15.9,-10.6 10.7,-16 3.8,-18.8 z"
         style="fill:#000000;fill-opacity:1;fill-rule:nonzero;stroke:#000000;stroke-width:0.0003937;stroke-linecap:round;stroke-linejoin:round;stroke-miterlimit:10;stroke-dasharray:none;stroke-opacity:1"
         id="path4314" />
      <path
         d="m 25561,62360.2 -3.7,-18.8 -10.7,-16 -16,-10.6 -18.8,-3.8 h -98.4 l -18.8,3.8 -16,10.6 -10.7,16 -3.7,18.8 v 492.2 l 3.7,18.8 10.7,16 16,10.6 18.8,3.8 h 98.4 l 18.8,-3.8 16,-10.6 10.7,-16 3.7,-18.8 z"
         style="fill:#000000;fill-opacity:1;fill-rule:nonzero;stroke:#000000;stroke-width:0.0003937;stroke-linecap:round;stroke-linejoin:round;stroke-miterlimit:10;stroke-dasharray:none;stroke-opacity:1"
         id="path4316" />
      <path
         d="m 25876,62360.2 -3.8,-18.8 -10.6,-16 -16,-10.6 -18.8,-3.8 h -98.5 l -18.8,3.8 -16,10.6 -10.6,16 -3.8,18.8 v 492.2 l 3.8,18.8 10.6,16 16,10.6 18.8,3.8 h 98.5 l 18.8,-3.8 16,-10.6 10.6,-16 3.8,-18.8 z"
         style="fill:#000000;fill-opacity:1;fill-rule:nonzero;stroke:#000000;stroke-width:0.0003937;stroke-linecap:round;stroke-linejoin:round;stroke-miterlimit:10;stroke-dasharray:none;stroke-opacity:1"
         id="path4318" />
      <path
         d="m 26190.9,62360.2 -3.7,-18.8 -10.7,-16 -15.9,-10.6 -18.9,-3.8 h -98.4 l -18.8,3.8 -16,10.6 -10.7,16 -3.7,18.8 v 492.2 l 3.7,18.8 10.7,16 16,10.6 18.8,3.8 h 98.4 l 18.9,-3.8 15.9,-10.6 10.7,-16 3.7,-18.8 z"
         style="fill:#000000;fill-opacity:1;fill-rule:nonzero;stroke:#000000;stroke-width:0.0003937;stroke-linecap:round;stroke-linejoin:round;stroke-miterlimit:10;stroke-dasharray:none;stroke-opacity:1"
         id="path4320" />
      <path
         d="m 26505.9,62360.2 -3.7,-18.8 -10.7,-16 -16,-10.6 -18.8,-3.8 h -98.4 l -18.9,3.8 -15.9,10.6 -10.7,16 -3.7,18.8 v 492.2 l 3.7,18.8 10.7,16 15.9,10.6 18.9,3.8 h 98.4 l 18.8,-3.8 16,-10.6 10.7,-16 3.7,-18.8 z"
         style="fill:#000000;fill-opacity:1;fill-rule:nonzero;stroke:#000000;stroke-width:0.0003937;stroke-linecap:round;stroke-linejoin:round;stroke-miterlimit:10;stroke-dasharray:none;stroke-opacity:1"
         id="path4322" />
      <path
         d="m 26820.9,62360.2 -3.8,-18.8 -10.6,-16 -16,-10.6 -18.8,-3.8 h -98.5 l -18.8,3.8 -16,10.6 -10.6,16 -3.8,18.8 v 492.2 l 3.8,18.8 10.6,16 16,10.6 18.8,3.8 h 98.5 l 18.8,-3.8 16,-10.6 10.6,-16 3.8,-18.8 z"
         style="fill:#000000;fill-opacity:1;fill-rule:nonzero;stroke:#000000;stroke-width:0.0003937;stroke-linecap:round;stroke-linejoin:round;stroke-miterlimit:10;stroke-dasharray:none;stroke-opacity:1"
         id="path4324" />
      <path
         d="m 27135.8,62360.2 -3.7,-18.8 -10.7,-16 -16,-10.6 -18.8,-3.8 h -98.4 l -18.8,3.8 -16,10.6 -10.7,16 -3.7,18.8 v 492.2 l 3.7,18.8 10.7,16 16,10.6 18.8,3.8 h 98.4 l 18.8,-3.8 16,-10.6 10.7,-16 3.7,-18.8 z"
         style="fill:#000000;fill-opacity:1;fill-rule:nonzero;stroke:#000000;stroke-width:0.0003937;stroke-linecap:round;stroke-linejoin:round;stroke-miterlimit:10;stroke-dasharray:none;stroke-opacity:1"
         id="path4326" />
      <path
         d="m 27450.8,62360.2 -3.8,-18.8 -10.6,-16 -16,-10.6 -18.8,-3.8 h -98.5 l -18.8,3.8 -15.9,10.6 -10.7,16 -3.8,18.8 v 492.2 l 3.8,18.8 10.7,16 15.9,10.6 18.8,3.8 h 98.5 l 18.8,-3.8 16,-10.6 10.6,-16 3.8,-18.8 z"
         style="fill:#000000;fill-opacity:1;fill-rule:nonzero;stroke:#000000;stroke-width:0.0003937;stroke-linecap:round;stroke-linejoin:round;stroke-miterlimit:10;stroke-dasharray:none;stroke-opacity:1"
         id="path4328" />
      <path
         d="m 25782.7,60423.2 3,15.1 8.5,12.8 12.8,8.5 15,3 h 502 l 15.1,-3 12.8,-8.5 8.5,-12.8 3,-15.1 v -78.7 l -3,-15.1 -8.5,-12.8 -12.8,-8.5 -15.1,-3 h -502 l -15,3 -12.8,8.5 -8.5,12.8 -3,15.1 z"
         style="fill:#000000;fill-opacity:1;fill-rule:nonzero;stroke:#000000;stroke-width:0.0003937;stroke-linecap:round;stroke-linejoin:round;stroke-miterlimit:10;stroke-dasharray:none;stroke-opacity:1"
         id="path4330" />
      <path
         d="m 25782.7,60167.3 3,15.1 8.5,12.8 12.8,8.5 15,3 h 502 l 15.1,-3 12.8,-8.5 8.5,-12.8 3,-15.1 v -78.7 l -3,-15.1 -8.5,-12.8 -12.8,-8.5 -15.1,-3 h -502 l -15,3 -12.8,8.5 -8.5,12.8 -3,15.1 z"
         style="fill:#000000;fill-opacity:1;fill-rule:nonzero;stroke:#000000;stroke-width:0.0003937;stroke-linecap:round;stroke-linejoin:round;stroke-miterlimit:10;stroke-dasharray:none;stroke-opacity:1"
         id="path4332" />
      <path
         d="m 25782.7,59911.4 3,15.1 8.5,12.8 12.8,8.5 15,3 h 502 l 15.1,-3 12.8,-8.5 8.5,-12.8 3,-15.1 v -78.7 l -3,-15.1 -8.5,-12.8 -12.8,-8.5 -15.1,-3 h -502 l -15,3 -12.8,8.5 -8.5,12.8 -3,15.1 z"
         style="fill:#000000;fill-opacity:1;fill-rule:nonzero;stroke:#000000;stroke-width:0.0003937;stroke-linecap:round;stroke-linejoin:round;stroke-miterlimit:10;stroke-dasharray:none;stroke-opacity:1"
         id="path4334" />
      <path
         d="m 25782.7,59655.5 3,15.1 8.5,12.8 12.8,8.5 15,3 h 502 l 15.1,-3 12.8,-8.5 8.5,-12.8 3,-15.1 v -78.7 l -3,-15.1 -8.5,-12.8 -12.8,-8.5 -15.1,-3 h -502 l -15,3 -12.8,8.5 -8.5,12.8 -3,15.1 z"
         style="fill:#000000;fill-opacity:1;fill-rule:nonzero;stroke:#000000;stroke-width:0.0003937;stroke-linecap:round;stroke-linejoin:round;stroke-miterlimit:10;stroke-dasharray:none;stroke-opacity:1"
         id="path4336" />
      <path
         d="m 28036.6,59655.5 3,15.1 8.5,12.8 12.8,8.5 15.1,3 h 502 l 15,-3 12.8,-8.5 8.5,-12.8 3,-15.1 v -78.7 l -3,-15.1 -8.5,-12.8 -12.8,-8.5 -15,-3 h -502 l -15.1,3 -12.8,8.5 -8.5,12.8 -3,15.1 z"
         style="fill:#000000;fill-opacity:1;fill-rule:nonzero;stroke:#000000;stroke-width:0.0003937;stroke-linecap:round;stroke-linejoin:round;stroke-miterlimit:10;stroke-dasharray:none;stroke-opacity:1"
         id="path4338" />
      <path
         d="m 28036.6,59911.4 3,15.1 8.5,12.8 12.8,8.5 15.1,3 h 502 l 15,-3 12.8,-8.5 8.5,-12.8 3,-15.1 v -78.7 l -3,-15.1 -8.5,-12.8 -12.8,-8.5 -15,-3 h -502 l -15.1,3 -12.8,8.5 -8.5,12.8 -3,15.1 z"
         style="fill:#000000;fill-opacity:1;fill-rule:nonzero;stroke:#000000;stroke-width:0.0003937;stroke-linecap:round;stroke-linejoin:round;stroke-miterlimit:10;stroke-dasharray:none;stroke-opacity:1"
         id="path4340" />
      <path
         d="m 28036.6,60167.3 3,15.1 8.5,12.8 12.8,8.5 15.1,3 h 502 l 15,-3 12.8,-8.5 8.5,-12.8 3,-15.1 v -78.7 l -3,-15.1 -8.5,-12.8 -12.8,-8.5 -15,-3 h -502 l -15.1,3 -12.8,8.5 -8.5,12.8 -3,15.1 z"
         style="fill:#000000;fill-opacity:1;fill-rule:nonzero;stroke:#000000;stroke-width:0.0003937;stroke-linecap:round;stroke-linejoin:round;stroke-miterlimit:10;stroke-dasharray:none;stroke-opacity:1"
         id="path4342" />
      <path
         d="m 28036.6,60423.2 3,15.1 8.5,12.8 12.8,8.5 15.1,3 h 502 l 15,-3 12.8,-8.5 8.5,-12.8 3,-15.1 v -78.7 l -3,-15.1 -8.5,-12.8 -12.8,-8.5 -15,-3 h -502 l -15.1,3 -12.8,8.5 -8.5,12.8 -3,15.1 z"
         style="fill:#000000;fill-opacity:1;fill-rule:nonzero;stroke:#000000;stroke-width:0.0003937;stroke-linecap:round;stroke-linejoin:round;stroke-miterlimit:10;stroke-dasharray:none;stroke-opacity:1"
         id="path4344" />
      <path
         d="m 30098.4,55982.3 33.9,-6.8 28.8,-19.2 19.2,-28.7 6.7,-33.9 v -177.2 l -6.7,-33.9 -19.2,-28.7 -28.8,-19.2 -33.9,-6.7 h -196.8 l -33.9,6.7 -28.8,19.2 -19.2,28.7 -6.7,33.9 v 177.2 l 6.7,33.9 19.2,28.7 28.8,19.2 33.9,6.8 z"
         style="fill:#000000;fill-opacity:1;fill-rule:nonzero;stroke:#000000;stroke-width:0.0003937;stroke-linecap:round;stroke-linejoin:round;stroke-miterlimit:10;stroke-dasharray:none;stroke-opacity:1"
         id="path4346" />
      <path
         d="m 30098.4,55372 33.9,-6.7 28.8,-19.2 19.2,-28.7 6.7,-33.9 v -177.2 l -6.7,-33.9 -19.2,-28.7 -28.8,-19.2 -33.9,-6.8 h -196.8 l -33.9,6.8 -28.8,19.2 -19.2,28.7 -6.7,33.9 v 177.2 l 6.7,33.9 19.2,28.7 28.8,19.2 33.9,6.7 z"
         style="fill:#000000;fill-opacity:1;fill-rule:nonzero;stroke:#000000;stroke-width:0.0003937;stroke-linecap:round;stroke-linejoin:round;stroke-miterlimit:10;stroke-dasharray:none;stroke-opacity:1"
         id="path4348" />
      <path
         d="m 21901.6,56217.7 -33.9,6.8 -28.8,19.2 -19.2,28.7 -6.7,33.9 v 177.2 l 6.7,33.9 19.2,28.7 28.8,19.2 33.9,6.7 h 196.8 l 33.9,-6.7 28.8,-19.2 19.2,-28.7 6.7,-33.9 v -177.2 l -6.7,-33.9 -19.2,-28.7 -28.8,-19.2 -33.9,-6.8 z"
         style="fill:#000000;fill-opacity:1;fill-rule:nonzero;stroke:#000000;stroke-width:0.0003937;stroke-linecap:round;stroke-linejoin:round;stroke-miterlimit:10;stroke-dasharray:none;stroke-opacity:1"
         id="path4350" />
      <path
         d="m 21901.6,56828 -33.9,6.7 -28.8,19.2 -19.2,28.7 -6.7,33.9 v 177.2 l 6.7,33.9 19.2,28.7 28.8,19.2 33.9,6.8 h 196.8 l 33.9,-6.8 28.8,-19.2 19.2,-28.7 6.7,-33.9 v -177.2 l -6.7,-33.9 -19.2,-28.7 -28.8,-19.2 -33.9,-6.7 z"
         style="fill:#000000;fill-opacity:1;fill-rule:nonzero;stroke:#000000;stroke-width:0.0003937;stroke-linecap:round;stroke-linejoin:round;stroke-miterlimit:10;stroke-dasharray:none;stroke-opacity:1"
         id="path4352" />
      <path
         d="m 29502.5,60011.8 11.8,-2.3 10.1,-6.8 6.7,-10 2.4,-11.9 v -174.2 l -2.4,-11.9 -6.7,-10 -10.1,-6.7 -11.8,-2.4 h -548.3 l -11.8,2.4 -10.1,6.7 -6.7,10 -2.4,11.9 v 174.2 l 2.4,11.9 6.7,10 10.1,6.8 11.8,2.3 z"
         style="fill:#000000;fill-opacity:1;fill-rule:nonzero;stroke:#000000;stroke-width:0.0003937;stroke-linecap:round;stroke-linejoin:round;stroke-miterlimit:10;stroke-dasharray:none;stroke-opacity:1"
         id="path4354" />
      <path
         d="m 29502.5,59618.1 11.8,-2.3 10.1,-6.8 6.7,-10 2.4,-11.9 v -174.2 l -2.4,-11.9 -6.7,-10 -10.1,-6.8 -11.8,-2.3 h -548.3 l -11.8,2.3 -10.1,6.8 -6.7,10 -2.4,11.9 v 174.2 l 2.4,11.9 6.7,10 10.1,6.8 11.8,2.3 z"
         style="fill:#000000;fill-opacity:1;fill-rule:nonzero;stroke:#000000;stroke-width:0.0003937;stroke-linecap:round;stroke-linejoin:round;stroke-miterlimit:10;stroke-dasharray:none;stroke-opacity:1"
         id="path4356" />
      <path
         d="m 29502.5,59224.4 11.8,-2.4 10.1,-6.7 6.7,-10 2.4,-11.9 v -174.2 l -2.4,-11.9 -6.7,-10 -10.1,-6.8 -11.8,-2.3 h -548.3 l -11.8,2.3 -10.1,6.8 -6.7,10 -2.4,11.9 v 174.2 l 2.4,11.9 6.7,10 10.1,6.7 11.8,2.4 z"
         style="fill:#000000;fill-opacity:1;fill-rule:nonzero;stroke:#000000;stroke-width:0.0003937;stroke-linecap:round;stroke-linejoin:round;stroke-miterlimit:10;stroke-dasharray:none;stroke-opacity:1"
         id="path4358" />
      <path
         d="m 30514.8,58830.7 23.7,-4.7 20.1,-13.5 13.5,-20.1 4.7,-23.7 v -348.4 l -4.7,-23.8 -13.5,-20.1 -20.1,-13.4 -23.7,-4.7 h -584.7 l -23.7,4.7 -20.1,13.4 -13.5,20.1 -4.7,23.8 v 348.4 l 4.7,23.7 13.5,20.1 20.1,13.5 23.7,4.7 z"
         style="fill:#000000;fill-opacity:1;fill-rule:nonzero;stroke:#000000;stroke-width:0.0003937;stroke-linecap:round;stroke-linejoin:round;stroke-miterlimit:10;stroke-dasharray:none;stroke-opacity:1"
         id="path4360" />
      <path
         d="m 30514.8,60641.7 23.7,-4.7 20.1,-13.4 13.5,-20.1 4.7,-23.8 v -348.4 l -4.7,-23.7 -13.5,-20.1 -20.1,-13.5 -23.7,-4.7 h -584.7 l -23.7,4.7 -20.1,13.5 -13.5,20.1 -4.7,23.7 v 348.4 l 4.7,23.8 13.5,20.1 20.1,13.4 23.7,4.7 z"
         style="fill:#000000;fill-opacity:1;fill-rule:nonzero;stroke:#000000;stroke-width:0.0003937;stroke-linecap:round;stroke-linejoin:round;stroke-miterlimit:10;stroke-dasharray:none;stroke-opacity:1"
         id="path4362" />
      <path
         d="m 25001.8,58401.6 -6.8,-33.9 -19.2,-28.8 -28.7,-19.2 -33.9,-6.7 H 24736 l -33.9,6.7 -28.7,19.2 -19.2,28.8 -6.8,33.9 v 196.8 l 6.8,33.9 19.2,28.8 28.7,19.2 33.9,6.7 h 177.2 l 33.9,-6.7 28.7,-19.2 19.2,-28.8 6.8,-33.9 z"
         style="fill:#000000;fill-opacity:1;fill-rule:nonzero;stroke:#000000;stroke-width:0.0003937;stroke-linecap:round;stroke-linejoin:round;stroke-miterlimit:10;stroke-dasharray:none;stroke-opacity:1"
         id="path4364" />
      <path
         d="m 24391.5,58401.6 -6.7,-33.9 -19.2,-28.8 -28.7,-19.2 -33.9,-6.7 h -177.2 l -33.9,6.7 -28.7,19.2 -19.3,28.8 -6.7,33.9 v 196.8 l 6.7,33.9 19.3,28.8 28.7,19.2 33.9,6.7 h 177.2 l 33.9,-6.7 28.7,-19.2 19.2,-28.8 6.7,-33.9 z"
         style="fill:#000000;fill-opacity:1;fill-rule:nonzero;stroke:#000000;stroke-width:0.0003937;stroke-linecap:round;stroke-linejoin:round;stroke-miterlimit:10;stroke-dasharray:none;stroke-opacity:1"
         id="path4366" />
      <path
         d="m 28632.3,61541.7 -6,-30.1 -17.1,-25.5 -25.5,-17.1 -30.2,-6 h -157.4 l -30.2,6 -25.5,17.1 -17.1,25.5 -6,30.1 v 216.6 l 6,30.1 17.1,25.5 25.5,17.1 30.2,6 h 157.4 l 30.2,-6 25.5,-17.1 17.1,-25.5 6,-30.1 z"
         style="fill:#000000;fill-opacity:1;fill-rule:nonzero;stroke:#000000;stroke-width:0.0003937;stroke-linecap:round;stroke-linejoin:round;stroke-miterlimit:10;stroke-dasharray:none;stroke-opacity:1"
         id="path4368" />
      <path
         d="m 27982.7,61541.7 -6,-30.1 -17.1,-25.5 -25.5,-17.1 -30.2,-6 h -157.4 l -30.2,6 -25.5,17.1 -17.1,25.5 -6,30.1 v 216.6 l 6,30.1 17.1,25.5 25.5,17.1 30.2,6 h 157.4 l 30.2,-6 25.5,-17.1 17.1,-25.5 6,-30.1 z"
         style="fill:#000000;fill-opacity:1;fill-rule:nonzero;stroke:#000000;stroke-width:0.0003937;stroke-linecap:round;stroke-linejoin:round;stroke-miterlimit:10;stroke-dasharray:none;stroke-opacity:1"
         id="path4370" />
      <path
         d="m 24401.6,66817.7 -33.9,6.8 -28.8,19.2 -19.2,28.7 -6.7,33.9 v 177.2 l 6.7,33.9 19.2,28.7 28.8,19.2 33.9,6.7 h 196.8 l 33.9,-6.7 28.8,-19.2 19.2,-28.7 6.7,-33.9 v -177.2 l -6.7,-33.9 -19.2,-28.7 -28.8,-19.2 -33.9,-6.8 z"
         style="fill:#000000;fill-opacity:1;fill-rule:nonzero;stroke:#000000;stroke-width:0.0003937;stroke-linecap:round;stroke-linejoin:round;stroke-miterlimit:10;stroke-dasharray:none;stroke-opacity:1"
         id="path4372" />
      <path
         d="m 24401.6,67428 -33.9,6.7 -28.8,19.2 -19.2,28.7 -6.7,33.9 v 177.2 l 6.7,33.9 19.2,28.7 28.8,19.2 33.9,6.8 h 196.8 l 33.9,-6.8 28.8,-19.2 19.2,-28.7 6.7,-33.9 v -177.2 l -6.7,-33.9 -19.2,-28.7 -28.8,-19.2 -33.9,-6.7 z"
         style="fill:#000000;fill-opacity:1;fill-rule:nonzero;stroke:#000000;stroke-width:0.0003937;stroke-linecap:round;stroke-linejoin:round;stroke-miterlimit:10;stroke-dasharray:none;stroke-opacity:1"
         id="path4374" />
      <path
         d="m 27682.3,60901.6 -6.8,-33.9 -19.2,-28.8 -28.7,-19.2 -33.9,-6.7 h -177.2 l -33.9,6.7 -28.7,19.2 -19.2,28.8 -6.7,33.9 v 196.8 l 6.7,33.9 19.2,28.8 28.7,19.2 33.9,6.7 h 177.2 l 33.9,-6.7 28.7,-19.2 19.2,-28.8 6.8,-33.9 z"
         style="fill:#000000;fill-opacity:1;fill-rule:nonzero;stroke:#000000;stroke-width:0.0003937;stroke-linecap:round;stroke-linejoin:round;stroke-miterlimit:10;stroke-dasharray:none;stroke-opacity:1"
         id="path4376" />
      <path
         d="m 27072,60901.6 -6.7,-33.9 -19.2,-28.8 -28.7,-19.2 -33.9,-6.7 h -177.2 l -33.9,6.7 -28.7,19.2 -19.2,28.8 -6.8,33.9 v 196.8 l 6.8,33.9 19.2,28.8 28.7,19.2 33.9,6.7 h 177.2 l 33.9,-6.7 28.7,-19.2 19.2,-28.8 6.7,-33.9 z"
         style="fill:#000000;fill-opacity:1;fill-rule:nonzero;stroke:#000000;stroke-width:0.0003937;stroke-linecap:round;stroke-linejoin:round;stroke-miterlimit:10;stroke-dasharray:none;stroke-opacity:1"
         id="path4378" />
      <path
         d="m 29901.6,56217.7 -33.9,6.8 -28.8,19.2 -19.2,28.7 -6.7,33.9 v 177.2 l 6.7,33.9 19.2,28.7 28.8,19.2 33.9,6.7 h 196.8 l 33.9,-6.7 28.8,-19.2 19.2,-28.7 6.7,-33.9 v -177.2 l -6.7,-33.9 -19.2,-28.7 -28.8,-19.2 -33.9,-6.8 z"
         style="fill:#000000;fill-opacity:1;fill-rule:nonzero;stroke:#000000;stroke-width:0.0003937;stroke-linecap:round;stroke-linejoin:round;stroke-miterlimit:10;stroke-dasharray:none;stroke-opacity:1"
         id="path4380" />
      <path
         d="m 29901.6,56828 -33.9,6.7 -28.8,19.2 -19.2,28.7 -6.7,33.9 v 177.2 l 6.7,33.9 19.2,28.7 28.8,19.2 33.9,6.8 h 196.8 l 33.9,-6.8 28.8,-19.2 19.2,-28.7 6.7,-33.9 v -177.2 l -6.7,-33.9 -19.2,-28.7 -28.8,-19.2 -33.9,-6.7 z"
         style="fill:#000000;fill-opacity:1;fill-rule:nonzero;stroke:#000000;stroke-width:0.0003937;stroke-linecap:round;stroke-linejoin:round;stroke-miterlimit:10;stroke-dasharray:none;stroke-opacity:1"
         id="path4382" />
    </g>
  </g>
</svg>
